<svg width="22" height="27" viewBox="0 0 22 27" fill="none" xmlns="http://www.w3.org/2000/svg">
<path fill-rule="evenodd" clip-rule="evenodd" d="M21.2608 19.4568C20.0763 17.9154 18.6434 16.9145 16.5903 16.3466L14.6667 23.0625C14.6667 23.6811 14.1587 24.1876 13.5384 24.1876C12.9183 24.1876 12.4103 23.6811 12.4103 23.0625V17.7188C12.4103 16.9427 11.7784 16.3125 11 16.3125C10.2217 16.3125 9.5898 16.9427 9.5898 17.7188V23.0625C9.5898 23.6811 9.08185 24.1876 8.46166 24.1876C7.84128 24.1876 7.33333 23.6811 7.33333 23.0625L5.40966 16.3466C3.35654 16.92 1.92373 17.9154 0.739343 19.4568C0.271076 20.0643 0.0166396 21.2849 0 21.9376C0.00558792 22.1063 0 22.3033 0 22.4999V23.625V24.7501C0 25.9932 1.0098 27 2.25646 27H19.7434C20.99 27 22 25.9932 22 24.7501V23.625V22.4999C22 22.3033 21.9945 22.1063 22 21.9376C21.9829 21.2849 21.7288 20.0642 21.2608 19.4568ZM5.07693 5.95124C5.07693 9.23624 7.13068 14.0625 11 14.0625C14.8021 14.0625 16.9229 9.23624 16.9229 5.95124C16.9229 2.66637 14.2717 0 11 0C7.72834 0 5.07693 2.66637 5.07693 5.95124Z" fill="white"/>
</svg>
