<svg width="29" height="27" viewBox="0 0 29 27" fill="none" xmlns="http://www.w3.org/2000/svg">
<path fill-rule="evenodd" clip-rule="evenodd" d="M14.1979 18.3906C13.5212 17.5192 12.9294 17.0894 11.4609 16.9429C11.1947 16.8936 11.0018 16.6606 11.0018 16.3842C11.0018 16.1816 11.6544 15.5742 11.6479 15.5682C12.3252 14.8747 12.6875 13.7518 12.6875 12.8863C12.6875 11.5429 11.5158 10.4319 9.96864 10.4319C8.39156 10.4319 7.24998 11.5429 7.24998 12.8863C7.24998 13.7577 7.60628 14.8866 8.2831 15.5806C8.2831 15.5806 8.93558 16.1815 8.93558 16.3841C8.93558 16.6724 8.718 16.918 8.4282 16.9546C6.98984 17.1021 6.40991 17.5317 5.73961 18.3905C5.55195 18.6422 5.44336 19.1389 5.4375 19.4032V20.5567C5.4375 21.0662 5.85405 21.4773 6.36795 21.4773H13.5696C14.0835 21.4773 14.5 21.0662 14.5 20.5567V19.4032C14.4942 19.139 14.3908 18.6423 14.1979 18.3906ZM21.4479 11.6592H18.4271C17.5935 11.6592 16.9166 12.3465 16.9166 13.1932C16.9166 14.04 17.5935 14.7274 18.4271 14.7274H21.4479C22.2815 14.7274 22.9585 14.0399 22.9585 13.1932C22.9585 12.3465 22.2816 11.6592 21.4479 11.6592ZM21.4479 17.1819H18.4271C17.5935 17.1819 16.9166 17.8691 16.9166 18.7161C16.9166 19.5628 17.5935 20.25 18.4271 20.25H21.4479C22.2815 20.25 22.9585 19.5628 22.9585 18.7161C22.9585 17.8691 22.2816 17.1819 21.4479 17.1819ZM0 24.5455C0 25.9017 1.08153 27 2.41655 27H26.5835C27.9186 27 29 25.9017 29 24.5455V4.90905C29 3.55304 27.9186 2.45462 26.5835 2.45462H19.3335V1.35007C19.3335 0.601719 18.741 0 18.0041 0H10.996C10.259 0 9.66673 0.601719 9.66673 1.35007V2.45462H2.41662C1.08153 2.45462 6.65887e-05 3.55304 6.65887e-05 4.90905V24.5455H0ZM4.35019 5.52272H9.66673V6.62728C9.66673 7.37569 10.259 7.97735 10.996 7.97735H18.004C18.7409 7.97735 19.3334 7.37569 19.3334 6.62728V5.52272H24.6499C25.3869 5.52272 25.9792 6.12444 25.9792 6.87292V22.5819C25.9792 23.3303 25.3869 23.9318 24.6499 23.9318H4.35019C3.61319 23.9318 3.02082 23.3303 3.02082 22.5819V6.87292C3.02075 6.12444 3.61319 5.52272 4.35019 5.52272Z" fill="white"/>
</svg>
