<svg width="35" height="27" viewBox="0 0 35 27" fill="none" xmlns="http://www.w3.org/2000/svg">
<path d="M17.3457 0C19.9421 0.000117689 22.1446 1.68977 22.9365 4.03516C22.9435 4.05562 22.9503 4.07612 22.957 4.09668C23.047 4.37293 23.1168 4.65782 23.166 4.9502C23.1688 4.96686 23.1731 4.98329 23.1758 5C23.1856 5.0615 23.1932 5.12343 23.2012 5.18555C23.207 5.23071 23.214 5.27581 23.2188 5.32129C23.2404 5.52831 23.252 5.73841 23.252 5.95117C23.252 6.08988 23.2478 6.2313 23.2402 6.375C23.2382 6.41265 23.234 6.45033 23.2314 6.48828C23.2242 6.59877 23.2157 6.71048 23.2041 6.82324C23.2008 6.85476 23.197 6.88629 23.1934 6.91797C23.1803 7.03392 23.165 7.1508 23.1475 7.26855C23.1415 7.30818 23.1354 7.3479 23.1289 7.3877C22.8367 9.20062 22.0218 11.1811 20.7373 12.5098C20.7486 12.5207 19.1627 14.0005 19.1621 14.4951C19.1621 14.8458 19.2933 15.1675 19.5088 15.4141L19.5869 15.4961C19.6102 15.5188 19.6344 15.5405 19.6592 15.5615C19.7278 15.6198 19.8019 15.6714 19.8809 15.7158C20.0061 15.7863 20.1428 15.8389 20.2881 15.8682C20.7323 15.9124 21.1539 15.9679 21.5547 16.0361C21.7552 16.0702 21.9503 16.1081 22.1406 16.1484C22.5214 16.2291 22.8825 16.3215 23.2256 16.4277C23.3969 16.4808 23.5639 16.537 23.7266 16.5967C24.0522 16.7161 24.3607 16.8494 24.6543 16.9961C24.9476 17.1426 25.226 17.3027 25.4912 17.4775C26.2874 18.0024 26.9654 18.6576 27.5771 19.457C27.752 19.6846 27.8969 19.9983 28.0107 20.3359C28.0867 20.5613 28.1494 20.7972 28.1973 21.0254C28.237 21.2148 28.2644 21.3992 28.2842 21.5674C28.3002 21.7031 28.3117 21.8281 28.3145 21.9375C28.309 22.1055 28.3144 24.7276 28.3145 24.75C28.3145 25.993 27.3074 26.9999 26.0645 27H8.62695C7.38388 26.9999 6.37695 25.993 6.37695 24.75C6.377 24.7275 6.3825 22.1055 6.37695 21.9375C6.37977 21.8281 6.39126 21.7031 6.40723 21.5674C6.42701 21.3992 6.45453 21.2149 6.49414 21.0254C6.51798 20.9114 6.54526 20.7953 6.57617 20.6797C6.69979 20.2173 6.88005 19.7607 7.11328 19.457C7.61772 18.7997 8.16791 18.2406 8.79199 17.7715C9.04183 17.5837 9.3037 17.4105 9.5791 17.251C9.99197 17.0118 10.4354 16.8037 10.916 16.625C11.0759 16.5655 11.2399 16.5091 11.4082 16.4561C12.0827 16.2436 12.8266 16.0823 13.6543 15.9678L14.291 15.8906C14.3663 15.8815 14.4396 15.8653 14.5107 15.8447C14.6792 15.7956 14.8346 15.7161 14.9707 15.6123L15.0508 15.5469C15.3431 15.2886 15.5283 14.9127 15.5283 14.4951C15.5276 14.0028 13.9631 12.5518 13.9482 12.5381C13.1045 11.6743 12.4702 10.5303 12.0498 9.33496V9.33691C12.0351 9.29521 12.022 9.25276 12.0078 9.21094C11.8781 8.82766 11.7689 8.44049 11.6836 8.05566C11.663 7.96309 11.6449 7.87045 11.627 7.77832C11.5604 7.43675 11.5103 7.09925 11.4795 6.77051C11.4724 6.69518 11.4681 6.62021 11.4629 6.5459C11.4488 6.34316 11.4395 6.14459 11.4395 5.95117C11.4395 5.88744 11.4424 5.82399 11.4443 5.76074C11.4457 5.71602 11.4468 5.67142 11.4492 5.62695C11.4522 5.57041 11.4564 5.51412 11.4609 5.45801C11.4635 5.42641 11.4647 5.39474 11.4678 5.36328C11.4732 5.308 11.4804 5.25307 11.4873 5.19824C11.4925 5.1571 11.4979 5.11607 11.5039 5.0752C11.5164 4.98994 11.5308 4.90533 11.5469 4.82129C11.5481 4.81514 11.5486 4.80888 11.5498 4.80273C11.5634 4.73283 11.5797 4.66373 11.5957 4.59473C11.6014 4.57001 11.6063 4.5451 11.6123 4.52051C11.6278 4.45716 11.6456 4.39457 11.6631 4.33203C11.6708 4.30441 11.6774 4.27648 11.6855 4.24902C12.4124 1.79278 14.6708 6.64651e-05 17.3457 0ZM8.24902 1.88574C8.95887 1.88574 9.62947 2.05424 10.2246 2.35254C9.68194 3.43621 9.37507 4.65893 9.375 5.95117C9.37507 7.61213 9.80036 9.61373 10.6855 11.4053C10.3895 11.7014 9.61642 12.4836 9.61621 12.7832C9.6164 13.2906 9.97956 13.7183 10.4619 13.8154C11.1193 13.8809 11.7107 13.9806 12.2471 14.1172C9.31226 14.7148 7.1779 15.9841 5.47754 18.1992C4.99754 18.8238 4.73077 19.5914 4.58203 20.1475C4.42394 20.7387 4.32673 21.3697 4.31348 21.8848L4.31152 21.9453L4.31348 22.0059C4.3135 22.0101 4.31408 22.0694 4.31445 22.1836H1.69238C0.757538 22.1836 0.000131909 21.4266 0 20.4922C5.88237e-05 20.4642 0.00414743 18.5061 0 18.3779C0.0126618 17.8872 0.202733 16.9694 0.553711 16.5127C1.76795 14.931 3.33355 14.1069 5.95215 13.832C6.47669 13.7684 6.88264 13.3203 6.88281 12.7832C6.88255 12.4137 5.70841 11.3246 5.69434 11.3115C4.45067 10.0388 3.80768 7.95793 3.80762 6.35938C3.80789 3.89021 5.79577 1.8859 8.24902 1.88574ZM26.1543 1.88574C28.6077 1.88581 30.5955 3.89009 30.5957 6.35938C30.5956 7.94915 29.9359 10.0173 28.7051 11.29C28.6999 11.3108 27.5208 12.4136 27.5205 12.7832C27.5208 13.2905 27.8848 13.7184 28.3672 13.8154C31.0404 14.0817 32.6229 14.9101 33.8496 16.5127C34.2004 16.9694 34.3908 17.8872 34.4033 18.3779C34.3992 18.5069 34.4033 20.4704 34.4033 20.4922C34.4032 21.4266 33.6457 22.1836 32.7109 22.1836H30.3779C30.3783 22.0696 30.3779 22.0097 30.3779 22.0049L30.3799 21.9453L30.3779 21.8857C30.3648 21.3698 30.2676 20.7377 30.1094 20.1465C29.9793 19.6607 29.759 19.0142 29.3857 18.4424L29.2168 18.2031C27.494 15.9514 25.3281 14.6734 22.3301 14.084C22.7966 13.9746 23.3032 13.8902 23.8574 13.832C24.3817 13.7682 24.7879 13.3201 24.7881 12.7832C24.7879 12.5312 24.2398 11.9465 23.8877 11.5947C24.8439 9.76378 25.3163 7.68153 25.3164 5.95117C25.3163 4.61514 24.9877 3.3537 24.4102 2.24316C24.9455 2.0127 25.5353 1.88574 26.1543 1.88574Z" fill="white"/>
</svg>
